<svg width="26" height="26" viewBox="0 0 26 26" fill="none" xmlns="http://www.w3.org/2000/svg">
<path fill-rule="evenodd" clip-rule="evenodd" d="M23.9202 -0.00927734H1.48787C0.718765 -0.00927734 0.0957031 0.613785 0.0957031 1.38289V23.8163C0.0957031 24.5843 0.718765 25.2074 1.48787 25.2074H13.5656V15.4422H10.279V11.6366H13.5656V8.83022C13.5656 5.57306 15.5546 3.79949 18.4608 3.79949C19.853 3.79949 21.0487 3.90351 21.3975 3.94974V7.35399L19.3823 7.35504C17.802 7.35504 17.4963 8.10629 17.4963 9.20741V11.6377H21.2651L20.7744 15.4433H17.4963V25.2074H23.9223C24.6893 25.2074 25.3124 24.5843 25.3124 23.8152V1.38289C25.3124 0.613785 24.6893 -0.00927734 23.9202 -0.00927734Z" fill="white"/>
</svg>
