<svg width="38" height="38" viewBox="0 0 38 38" fill="none" xmlns="http://www.w3.org/2000/svg">
<g opacity="0.6">
<g clip-path="url(#clip0_660_2072)">
<path d="M0.875977 0.344482H37.6503V12.605H0.875977V0.344482Z" fill="#FF9933"/>
<path d="M0.875977 12.605H37.6503V24.8583H0.875977V12.605Z" fill="white"/>
<path d="M0.875977 24.8584H37.6503V37.1189H0.875977V24.8584Z" fill="#128807"/>
<path d="M19.2626 23.6348C21.9706 23.6348 24.1658 21.4396 24.1658 18.7316C24.1658 16.0236 21.9706 13.8284 19.2626 13.8284C16.5546 13.8284 14.3594 16.0236 14.3594 18.7316C14.3594 21.4396 16.5546 23.6348 19.2626 23.6348Z" fill="#000088"/>
<path d="M19.262 23.0218C21.6315 23.0218 23.5523 21.101 23.5523 18.7315C23.5523 16.362 21.6315 14.4412 19.262 14.4412C16.8925 14.4412 14.9717 16.362 14.9717 18.7315C14.9717 21.101 16.8925 23.0218 19.262 23.0218Z" fill="white"/>
<path d="M19.2624 19.5897C19.7363 19.5897 20.1204 19.2055 20.1204 18.7316C20.1204 18.2577 19.7363 17.8735 19.2624 17.8735C18.7885 17.8735 18.4043 18.2577 18.4043 18.7316C18.4043 19.2055 18.7885 19.5897 19.2624 19.5897Z" fill="#000088"/>
<path d="M23.4854 19.512C23.6062 19.5279 23.717 19.4428 23.7329 19.322C23.7488 19.2012 23.6638 19.0904 23.543 19.0745C23.4222 19.0585 23.3113 19.1436 23.2954 19.2644C23.2795 19.3852 23.3646 19.4961 23.4854 19.512Z" fill="#000088"/>
<path d="M19.2604 23.0219L19.4075 20.4477L19.2604 19.2219L19.1133 20.4477L19.2604 23.0219Z" fill="#000088"/>
</g>
</g>
<defs>
<clipPath id="clip0_660_2072">
<rect x="0.875977" y="0.344482" width="36.7743" height="36.7743" rx="18.3872" fill="white"/>
</clipPath>
</defs>
</svg>
