<svg width="26" height="26" viewBox="0 0 26 26" fill="none" xmlns="http://www.w3.org/2000/svg">
<path fill-rule="evenodd" clip-rule="evenodd" d="M12.6583 2.26347C16.0247 2.26347 16.4239 2.27607 17.7541 2.33701C21.171 2.49252 22.767 4.11374 22.9225 7.50538C22.9834 8.83451 22.995 9.23377 22.995 12.6002C22.995 15.9677 22.9824 16.3659 22.9225 17.695C22.7659 21.0835 21.1741 22.7079 17.7541 22.8634C16.4239 22.9243 16.0268 22.9369 12.6583 22.9369C9.29183 22.9369 8.89256 22.9243 7.56344 22.8634C4.13817 22.7068 2.55057 21.0783 2.39507 17.694C2.33413 16.3648 2.32152 15.9666 2.32152 12.5991C2.32152 9.23272 2.33518 8.83451 2.39507 7.50433C2.55162 4.11374 4.14342 2.49147 7.56344 2.33596C8.89361 2.27607 9.29183 2.26347 12.6583 2.26347ZM12.6581 -0.00927734C9.23392 -0.00927734 8.80524 0.00543238 7.46035 0.0663727C2.88143 0.276512 0.336644 2.81709 0.126505 7.40022C0.0645144 8.74616 0.0498047 9.17484 0.0498047 12.5991C0.0498047 16.0233 0.0645144 16.453 0.125455 17.7979C0.335594 22.3768 2.87617 24.9216 7.4593 25.1317C8.80524 25.1927 9.23392 25.2074 12.6581 25.2074C16.0824 25.2074 16.5121 25.1927 17.857 25.1317C22.4317 24.9216 24.9828 22.381 25.1898 17.7979C25.2518 16.453 25.2665 16.0233 25.2665 12.5991C25.2665 9.17484 25.2518 8.74616 25.1908 7.40127C24.9849 2.82655 22.4412 0.277562 17.858 0.0674234C16.5121 0.00543238 16.0824 -0.00927734 12.6581 -0.00927734ZM12.658 6.12456C9.08251 6.12456 6.18364 9.02343 6.18364 12.5989C6.18364 16.1745 9.08251 19.0744 12.658 19.0744C16.2335 19.0744 19.1324 16.1755 19.1324 12.5989C19.1324 9.02343 16.2335 6.12456 12.658 6.12456ZM12.6581 16.8018C10.3372 16.8018 8.45536 14.9211 8.45536 12.5991C8.45536 10.2781 10.3372 8.39628 12.6581 8.39628C14.9791 8.39628 16.8609 10.2781 16.8609 12.5991C16.8609 14.9211 14.9791 16.8018 12.6581 16.8018ZM19.3887 4.35613C18.5524 4.35613 17.8747 5.03383 17.8747 5.86913C17.8747 6.70443 18.5524 7.38213 19.3887 7.38213C20.224 7.38213 20.9007 6.70443 20.9007 5.86913C20.9007 5.03383 20.224 4.35613 19.3887 4.35613Z" fill="white"/>
</svg>
