<svg width="294" height="81" viewBox="0 0 294 81" fill="none" xmlns="http://www.w3.org/2000/svg">
<path d="M76.9224 17.4008L50.3828 10.0137L41.351 18.8018C45.5659 21.0519 58.2474 25.4248 60.8041 25.4248C64 25.4248 50.3828 47.4588 41.351 57.648C32.3193 67.8372 29.9571 41.6001 28.9844 41.6001C28.0118 41.6001 14.3946 44.1474 0.22168 46.0578C16.3399 63.8889 41.351 71.7855 51.9113 56.6291L76.9224 17.4008Z" fill="#F2CA44"/>
<path d="M85.2801 30.7765C89.5896 30.7765 92.8935 31.715 95.1919 33.5921C97.4903 35.4691 98.6395 38.3229 98.6395 42.1536V63.5574H92.52L90.825 59.1904H90.5951C89.6758 60.3396 88.7373 61.2781 87.7796 62.006C86.8219 62.7338 85.7206 63.2701 84.4757 63.6148C83.2307 63.9596 81.7176 64.132 79.9363 64.132C78.0402 64.132 76.3355 63.7681 74.8224 63.0402C73.3284 62.3124 72.1505 61.2015 71.2886 59.7076C70.4267 58.1945 69.9958 56.2791 69.9958 53.9616C69.9958 50.5523 71.1929 48.0432 73.587 46.4343C75.9812 44.8063 79.5724 43.9061 84.3607 43.7337L89.9343 43.5613V42.1536C89.9343 40.4681 89.4938 39.2327 88.6128 38.4474C87.7317 37.6621 86.5059 37.2695 84.9353 37.2695C83.3839 37.2695 81.8612 37.4898 80.3673 37.9303C78.8733 38.3708 77.3794 38.9262 75.8854 39.5966L72.9837 33.6782C74.6883 32.778 76.5941 32.0694 78.7009 31.5522C80.827 31.0351 83.02 30.7765 85.2801 30.7765ZM89.9343 48.6753L86.5442 48.7902C83.7095 48.8668 81.7367 49.3744 80.6258 50.3129C79.5341 51.2514 78.9882 52.4868 78.9882 54.019C78.9882 55.3598 79.3809 56.3174 80.1662 56.892C80.9515 57.4475 81.9762 57.7252 83.2403 57.7252C85.1173 57.7252 86.6974 57.1698 87.9807 56.0589C89.2831 54.948 89.9343 53.3678 89.9343 51.3184V48.6753ZM130.099 54.019C130.099 56.2025 129.582 58.0508 128.547 59.5639C127.532 61.0579 126.01 62.1975 123.979 62.9828C121.949 63.7489 119.421 64.132 116.395 64.132C114.154 64.132 112.229 63.9883 110.62 63.701C109.03 63.4137 107.421 62.9349 105.793 62.2645V55.0246C107.536 55.8099 109.404 56.4611 111.396 56.9782C113.407 57.4762 115.169 57.7252 116.682 57.7252C118.387 57.7252 119.603 57.4762 120.331 56.9782C121.078 56.4611 121.451 55.7907 121.451 54.9671C121.451 54.4308 121.298 53.952 120.991 53.5306C120.704 53.0901 120.072 52.6017 119.095 52.0654C118.118 51.51 116.586 50.7917 114.498 49.9107C112.487 49.0679 110.831 48.2156 109.528 47.3537C108.245 46.4918 107.287 45.4767 106.655 44.3083C106.042 43.1208 105.736 41.6173 105.736 39.7977C105.736 36.829 106.885 34.5976 109.183 33.1037C111.501 31.5905 114.594 30.834 118.463 30.834C120.455 30.834 122.351 31.0351 124.152 31.4373C125.971 31.8395 127.839 32.4812 129.754 33.3622L127.111 39.6828C125.521 38.9933 124.018 38.4283 122.6 37.9877C121.202 37.5472 119.775 37.3269 118.32 37.3269C117.036 37.3269 116.069 37.4993 115.418 37.8441C114.767 38.1888 114.441 38.7156 114.441 39.4242C114.441 39.9414 114.604 40.4011 114.929 40.8033C115.274 41.2055 115.925 41.6556 116.883 42.1536C117.86 42.6324 119.287 43.2549 121.164 44.021C122.983 44.768 124.563 45.5533 125.904 46.3769C127.245 47.1813 128.279 48.1869 129.007 49.3935C129.735 50.581 130.099 52.1229 130.099 54.019ZM150.095 30.7765C154.404 30.7765 157.708 31.715 160.007 33.5921C162.305 35.4691 163.454 38.3229 163.454 42.1536V63.5574H157.335L155.64 59.1904H155.41C154.49 60.3396 153.552 61.2781 152.594 62.006C151.637 62.7338 150.535 63.2701 149.29 63.6148C148.045 63.9596 146.532 64.132 144.751 64.132C142.855 64.132 141.15 63.7681 139.637 63.0402C138.143 62.3124 136.965 61.2015 136.103 59.7076C135.241 58.1945 134.81 56.2791 134.81 53.9616C134.81 50.5523 136.008 48.0432 138.402 46.4343C140.796 44.8063 144.387 43.9061 149.175 43.7337L154.749 43.5613V42.1536C154.749 40.4681 154.309 39.2327 153.427 38.4474C152.546 37.6621 151.321 37.2695 149.75 37.2695C148.199 37.2695 146.676 37.4898 145.182 37.9303C143.688 38.3708 142.194 38.9262 140.7 39.5966L137.798 33.6782C139.503 32.778 141.409 32.0694 143.516 31.5522C145.642 31.0351 147.835 30.7765 150.095 30.7765ZM154.749 48.6753L151.359 48.7902C148.524 48.8668 146.551 49.3744 145.441 50.3129C144.349 51.2514 143.803 52.4868 143.803 54.019C143.803 55.3598 144.196 56.3174 144.981 56.892C145.766 57.4475 146.791 57.7252 148.055 57.7252C149.932 57.7252 151.512 57.1698 152.795 56.0589C154.098 54.948 154.749 53.3678 154.749 51.3184V48.6753ZM206.98 63.5574H196.867L185.864 45.8597L182.1 48.5604V63.5574H173.194V21.5542H182.1V40.7745C182.694 39.9509 183.278 39.1274 183.852 38.3038C184.427 37.4802 185.011 36.6566 185.605 35.833L196.982 21.5542H206.865L192.213 40.1425L206.98 63.5574ZM241.054 31.4373V63.5574H234.331L233.153 59.449H232.693C232.004 60.5407 231.142 61.4314 230.108 62.1209C229.073 62.8104 227.934 63.318 226.689 63.6436C225.444 63.9692 224.151 64.132 222.81 64.132C220.512 64.132 218.51 63.7298 216.806 62.9253C215.101 62.1017 213.77 60.828 212.812 59.1042C211.874 57.3804 211.404 55.1395 211.404 52.3814V31.4373H220.167V50.198C220.167 52.4964 220.579 54.2297 221.402 55.3981C222.226 56.5664 223.538 57.1506 225.338 57.1506C227.12 57.1506 228.518 56.7484 229.533 55.9439C230.548 55.1204 231.257 53.9233 231.659 52.3527C232.08 50.763 232.291 48.8285 232.291 46.5493V31.4373H241.054ZM257.315 21.5542L257.717 22.1863C257.372 23.5845 256.922 25.0784 256.367 26.6681C255.831 28.2387 255.237 29.8189 254.586 31.4086C253.953 32.9983 253.312 34.5114 252.661 35.9479H246.369C246.637 34.7987 246.905 33.5921 247.173 32.3279C247.461 31.0638 247.729 29.7997 247.978 28.5356C248.246 27.2715 248.485 26.0457 248.696 24.8582C248.907 23.6707 249.089 22.5693 249.242 21.5542H257.315Z" fill="black"/>
<path d="M290.739 56.2441C302.296 28.9254 268.497 58.1021 253.439 64.1249C245.559 67.2768 206.683 78.8354 185.144 74.5865C207.209 84.0889 284.237 71.612 290.739 56.2441Z" fill="#F2CA44"/>
</svg>
