<svg width="36" height="35" viewBox="0 0 36 35" fill="none" xmlns="http://www.w3.org/2000/svg">
<path d="M30.423 7.75004H25.1695V5.97458C25.1695 4.56193 24.616 3.20715 23.6308 2.20826C22.6456 1.20936 21.3094 0.648193 19.9161 0.648193H16.4137C15.0204 0.648193 13.6842 1.20936 12.699 2.20826C11.7138 3.20715 11.1603 4.56193 11.1603 5.97458V7.75004H5.90679C4.51349 7.75004 3.17724 8.31121 2.19203 9.3101C1.20681 10.309 0.65332 11.6638 0.65332 13.0764V29.0556C0.65332 30.4682 1.20681 31.823 2.19203 32.8219C3.17724 33.8208 4.51349 34.382 5.90679 34.382H30.423C31.8163 34.382 33.1525 33.8208 34.1378 32.8219C35.123 31.823 35.6765 30.4682 35.6765 29.0556V13.0764C35.6765 11.6638 35.123 10.309 34.1378 9.3101C33.1525 8.31121 31.8163 7.75004 30.423 7.75004ZM14.6626 5.97458C14.6626 5.5037 14.8471 5.0521 15.1755 4.71914C15.5039 4.38617 15.9493 4.19912 16.4137 4.19912H19.9161C20.3805 4.19912 20.8259 4.38617 21.1543 4.71914C21.4827 5.0521 21.6672 5.5037 21.6672 5.97458V7.75004H14.6626V5.97458ZM32.1742 29.0556C32.1742 29.5265 31.9897 29.9781 31.6613 30.311C31.3328 30.644 30.8874 30.831 30.423 30.831H5.90679C5.44236 30.831 4.99694 30.644 4.66854 30.311C4.34013 29.9781 4.15564 29.5265 4.15564 29.0556V20.0895H9.40911V21.9537C9.40911 22.4246 9.59361 22.8762 9.92201 23.2092C10.2504 23.5421 10.6958 23.7292 11.1603 23.7292C11.6247 23.7292 12.0701 23.5421 12.3985 23.2092C12.7269 22.8762 12.9114 22.4246 12.9114 21.9537V20.0895H23.4184V21.9537C23.4184 22.4246 23.6029 22.8762 23.9313 23.2092C24.2597 23.5421 24.7051 23.7292 25.1695 23.7292C25.634 23.7292 26.0794 23.5421 26.4078 23.2092C26.7362 22.8762 26.9207 22.4246 26.9207 21.9537V20.0895H32.1742V29.0556ZM32.1742 16.6273H4.15564V13.0764C4.15564 12.6055 4.34013 12.1539 4.66854 11.821C4.99694 11.488 5.44236 11.301 5.90679 11.301H30.423C30.8874 11.301 31.3328 11.488 31.6613 11.821C31.9897 12.1539 32.1742 12.6055 32.1742 13.0764V16.6273Z" fill="#E8E8E8"/>
</svg>
