<svg width="33" height="36" viewBox="0 0 33 36" fill="none" xmlns="http://www.w3.org/2000/svg">
<path d="M25.0741 13.0458C25.3309 12.8071 25.4837 12.4746 25.4988 12.1217C25.5139 11.7688 25.3901 11.4242 25.1546 11.1638C24.9192 10.9034 24.5913 10.7485 24.2432 10.7332C23.8951 10.7179 23.5552 10.8434 23.2984 11.0821L13.7196 19.9861L10.2295 16.4493C9.98054 16.2141 9.65124 16.0861 9.31099 16.0922C8.97074 16.0983 8.6461 16.238 8.40547 16.482C8.16483 16.726 8.027 17.0551 8.02099 17.4001C8.01499 17.745 8.14129 18.0789 8.37328 18.3313L12.7512 22.77C12.9904 23.0127 13.3127 23.1524 13.6511 23.16C13.9894 23.1676 14.3175 23.0425 14.5671 22.8108L25.0741 13.0458ZM31.1909 5.40598C26.5275 5.40598 21.9833 3.73171 17.5318 0.345909C17.3045 0.173039 17.028 0.0795898 16.7438 0.0795898C16.4596 0.0795898 16.1831 0.173039 15.9558 0.345909C11.5044 3.73171 6.9601 5.40598 2.29677 5.40598C1.94844 5.40598 1.61438 5.54627 1.36807 5.79599C1.12177 6.04571 0.983398 6.38441 0.983398 6.73757V16.0587C0.983398 24.9378 6.16332 31.4627 16.2622 35.4965C16.5717 35.6202 16.9159 35.6202 17.2254 35.4965C27.3243 31.4627 32.5042 24.9361 32.5042 16.0587V6.73757C32.5042 6.38441 32.3659 6.04571 32.1196 5.79599C31.8733 5.54627 31.5392 5.40598 31.1909 5.40598ZM3.61013 8.03011C8.12287 7.76024 12.506 6.09485 16.7438 3.05881C20.9816 6.09485 25.3648 7.76024 29.8775 8.03011V16.0587C29.8775 23.6151 25.5819 29.1599 16.7438 32.8227C7.90572 29.1599 3.61013 23.6151 3.61013 16.0587V8.03011Z" fill="#E8E8E8"/>
</svg>
