<svg width="37" height="39" viewBox="0 0 37 39" fill="none" xmlns="http://www.w3.org/2000/svg">
<path d="M35.7125 13.6593C37.9015 11.44 36.9033 8.84783 35.7125 7.58726L30.4591 2.26087C28.2526 0.0415424 25.7134 1.05356 24.4701 2.26087L21.4931 5.29691H16.9577C13.6305 5.29691 11.7042 7.07237 10.7235 9.11415L2.94839 16.9972V24.0991L1.70507 25.3419C-0.483877 27.579 0.514282 30.1534 1.70507 31.414L6.95854 36.7403C7.90417 37.6991 8.91984 38.0542 9.88297 38.0542C11.1263 38.0542 12.2645 37.4328 12.9475 36.7403L17.6756 31.9288H23.9623C26.9392 31.9288 28.4452 30.0469 28.9881 28.2004C30.9669 27.6677 32.0526 26.1408 32.4904 24.6494C35.2047 23.9393 36.2204 21.3293 36.2204 19.5006V14.1742H35.1872L35.7125 13.6593ZM32.7181 19.5006C32.7181 20.2996 32.3853 21.2761 30.9669 21.2761H29.2158V23.0515C29.2158 23.8505 28.883 24.827 27.4646 24.827H25.7134V26.6025C25.7134 27.4014 25.3807 28.3779 23.9623 28.3779H16.2397L10.4959 34.2014C9.95302 34.7163 9.63781 34.4145 9.44518 34.2192L4.20922 28.9283C3.70139 28.3779 3.99909 28.0583 4.19171 27.863L6.45071 25.5549V18.4531L9.95302 14.9022V17.7251C9.95302 19.8735 11.3539 23.0515 15.2065 23.0515C19.059 23.0515 20.46 19.8735 20.46 17.7251H32.7181V19.5006ZM33.2259 11.1382L30.2489 14.1742H16.9577V17.7251C16.9577 18.5241 16.6249 19.5006 15.2065 19.5006C13.7881 19.5006 13.4553 18.5241 13.4553 17.7251V12.3988C13.4553 11.582 13.753 8.84783 16.9577 8.84783H22.9291L26.9217 4.79978C27.4646 4.2849 27.7798 4.58673 27.9724 4.78203L33.2084 10.0729C33.7162 10.6233 33.4185 10.9429 33.2259 11.1382Z" fill="#E8E8E8"/>
</svg>
