<svg width="26" height="26" viewBox="0 0 26 26" fill="none" xmlns="http://www.w3.org/2000/svg">
<path fill-rule="evenodd" clip-rule="evenodd" d="M25.2899 4.51809C24.3621 4.92997 23.365 5.20735 22.3185 5.33238C23.3871 4.69251 24.2077 3.67859 24.5933 2.47029C23.5941 3.06288 22.4867 3.49367 21.3078 3.72587C20.3653 2.72036 19.0194 2.09204 17.5316 2.09204C14.1914 2.09204 11.737 5.2084 12.4914 8.44349C8.19301 8.2281 4.38109 6.16874 1.82895 3.03872C0.473557 5.3639 1.12604 8.40566 3.42916 9.94598C2.5823 9.91866 1.78377 9.68646 1.08716 9.29875C1.03042 11.6954 2.74831 13.9376 5.23635 14.4367C4.50822 14.6342 3.71075 14.6804 2.89961 14.5249C3.55735 16.5801 5.46751 18.0752 7.7328 18.1172C5.55787 19.8225 2.81766 20.5843 0.0732422 20.2606C2.36271 21.7285 5.08295 22.5848 8.00388 22.5848C17.6093 22.5848 23.0362 14.4724 22.7084 7.19631C23.7191 6.46608 24.5965 5.55513 25.2899 4.51809Z" fill="white"/>
</svg>
