<svg width="43" height="43" viewBox="0 0 43 43" fill="none" xmlns="http://www.w3.org/2000/svg">
<path d="M38.9414 12.7377C38.732 11.9581 38.3216 11.2471 37.7511 10.6759C37.1807 10.1047 36.4702 9.69335 35.6908 9.48303C32.8219 8.71143 21.3217 8.71143 21.3217 8.71143C21.3217 8.71143 9.82154 8.71143 6.95266 9.47893C6.17293 9.68857 5.46208 10.0997 4.89151 10.671C4.32094 11.2423 3.91073 11.9536 3.70207 12.7336C2.93457 15.6066 2.93457 21.5989 2.93457 21.5989C2.93457 21.5989 2.93457 27.5911 3.70207 30.46C4.12481 32.0442 5.37251 33.2919 6.95266 33.7147C9.82154 34.4863 21.3217 34.4863 21.3217 34.4863C21.3217 34.4863 32.8219 34.4863 35.6908 33.7147C37.275 33.2919 38.5186 32.0442 38.9414 30.46C39.7089 27.5911 39.7089 21.5989 39.7089 21.5989C39.7089 21.5989 39.7089 15.6066 38.9414 12.7377ZM17.6689 27.0986V16.0991L27.1908 21.5578L17.6689 27.0986Z" fill="white"/>
</svg>
